<svg xmlns="http://www.w3.org/2000/svg" xmlns:xlink="http://www.w3.org/1999/xlink" viewBox="0 0 1411.9 337.27">
    <defs>
        <style>
            .cls-1{fill:url(#Безымянный_градиент_62);}.cls-2{fill:url(#Безымянный_градиент_65);}.cls-3{fill:url(#Sandstone);}.cls-4{fill:url(#Sandstone-2);}.cls-5{fill:url(#Sandstone-3);}.cls-6{fill:url(#Sandstone-4);}.cls-7{fill:url(#Sandstone-5);}.cls-8{fill:url(#Sandstone-6);}.cls-9{fill:url(#Sandstone-7);}.cls-10{fill:url(#Безымянный_градиент_110);}.cls-11{fill:url(#Sandstone-8);}.cls-12{fill:url(#Sandstone-9);}.cls-13{fill:url(#Sandstone-10);}.cls-14{fill:url(#Sandstone-11);}.cls-15{fill:url(#Sandstone-12);}.cls-16{fill:url(#Sandstone-13);}.cls-17{fill:url(#Sandstone-14);}.cls-18{fill:url(#Sandstone-15);}.cls-19{fill:url(#Sandstone-16);}.cls-20{fill:url(#Brick_1);}.cls-21{fill:url(#Sandstone-17);}.cls-22{fill:url(#Brick_1-2);}.cls-23{fill:url(#Brick_1-3);}.cls-24{fill:url(#Sandstone-18);}.cls-25{fill:url(#Sandstone-19);}
        </style>
        <linearGradient id="Безымянный_градиент_62" y1="280.93" x2="334.76" y2="280.93" gradientUnits="userSpaceOnUse">
            <stop offset="0" stop-color="#dec187"/>
            <stop offset="0.32" stop-color="#b2991a"/>
            <stop offset="1" stop-color="#877145"/>
        </linearGradient>
        <linearGradient id="Безымянный_градиент_65" x1="591.6" y1="280.93" x2="1411.9" y2="280.93"
                        gradientUnits="userSpaceOnUse">
            <stop offset="0" stop-color="#dec187"/>
            <stop offset="0.51" stop-color="#b2991a"/>
            <stop offset="1" stop-color="#877145"/>
        </linearGradient>
        <linearGradient id="Sandstone" y1="167.01" x2="152.93" y2="167.01" gradientUnits="userSpaceOnUse">
            <stop offset="0" stop-color="#dec187"/>
            <stop offset="1" stop-color="#877145"/>
        </linearGradient>
        <linearGradient id="Sandstone-2" x1="4.1" y1="205.46" x2="211.11" y2="205.46" xlink:href="#Sandstone"/>
        <linearGradient id="Sandstone-3" x1="168.17" y1="207.29" x2="222.09" y2="207.29" xlink:href="#Sandstone"/>
        <linearGradient id="Sandstone-4" x1="309.47" y1="207.33" x2="347.92" y2="207.33" xlink:href="#Sandstone"/>
        <linearGradient id="Sandstone-5" x1="222.09" y1="203.56" x2="344.36" y2="203.56" xlink:href="#Sandstone"/>
        <linearGradient id="Sandstone-6" x1="368.15" y1="137.73" x2="471.42" y2="137.73" xlink:href="#Sandstone"/>
        <linearGradient id="Sandstone-7" x1="363.43" y1="297.29" x2="572.2" y2="297.29" xlink:href="#Sandstone"/>
        <linearGradient id="Безымянный_градиент_110" x1="345.65" y1="158.58" x2="568.6" y2="158.58"
                        gradientUnits="userSpaceOnUse">
            <stop offset="0" stop-color="#dec187"/>
            <stop offset="0.47" stop-color="#b69c25"/>
            <stop offset="1" stop-color="#877145"/>
        </linearGradient>
        <linearGradient id="Sandstone-8" x1="405.5" y1="72.36" x2="504.04" y2="72.36" xlink:href="#Sandstone"/>
        <linearGradient id="Sandstone-9" x1="591.6" y1="151.57" x2="769.32" y2="151.57" xlink:href="#Sandstone"/>
        <linearGradient id="Sandstone-10" x1="599.49" y1="169.36" x2="784.42" y2="169.36" xlink:href="#Sandstone"/>
        <linearGradient id="Sandstone-11" x1="905.7" y1="138.01" x2="927.39" y2="138.01" xlink:href="#Sandstone"/>
        <linearGradient id="Sandstone-12" x1="806.74" y1="251.3" x2="941.31" y2="251.3" xlink:href="#Sandstone"/>
        <linearGradient id="Sandstone-13" x1="890.38" y1="186.27" x2="893.28" y2="186.27" xlink:href="#Sandstone"/>
        <linearGradient id="Sandstone-14" x1="791.31" y1="188.24" x2="928.09" y2="188.24" xlink:href="#Sandstone"/>
        <linearGradient id="Sandstone-15" x1="1060.22" y1="220.2" x2="1130.99" y2="220.2" xlink:href="#Sandstone"/>
        <linearGradient id="Sandstone-16" x1="946.72" y1="192.21" x2="1113" y2="192.21" xlink:href="#Sandstone"/>
        <linearGradient id="Brick_1" x1="1239.91" y1="135.17" x2="1260.29" y2="135.17" gradientUnits="userSpaceOnUse">
            <stop offset="0" stop-color="#e58a76"/>
            <stop offset="0.51" stop-color="#aa3c17"/>
            <stop offset="1" stop-color="#611c01"/>
        </linearGradient>
        <linearGradient id="Sandstone-17" x1="1109.25" y1="164.77" x2="1252.78" y2="164.77" xlink:href="#Sandstone"/>
        <linearGradient id="Brick_1-2" x1="1133.33" y1="140.47" x2="1168.5" y2="140.47" xlink:href="#Brick_1"/>
        <linearGradient id="Brick_1-3" x1="1157.05" y1="200.68" x2="1228.46" y2="200.68" xlink:href="#Brick_1"/>
        <linearGradient id="Sandstone-18" x1="1347.42" y1="194.16" x2="1411.9" y2="194.16" xlink:href="#Sandstone"/>
        <linearGradient id="Sandstone-19" x1="1260.29" y1="192.09" x2="1399.34" y2="192.09" xlink:href="#Sandstone"/>
    </defs>
    <g id="Слой_2" data-name="Слой 2">
        <g id="Слой_1-2" data-name="Слой 1">
            <rect class="cls-1" y="277.94" width="334.76" height="5.98"/>
            <rect class="cls-2" x="591.6" y="277.94" width="820.3" height="5.98"/>
            <path class="cls-3"
                  d="M0,261H152.93q-14.51-14.66-28.27-54.64-4.11,23.73-16,34.06T73.39,250.72c-4,0-8.2-.19-12.6-.58V96.33L75,81.83,73,78.6l-15.82,16V250.14H55.81l-5.27-.44H49.37V93.11L70,73H0l20.21,18.6V244.42Z"/>
            <path class="cls-4"
                  d="M210.32,264.88l-12.47-10.49v-103l13.26-13.46h-46.9L178,150.3V253.5l-12.83,10.61,2.16-4.3-1.18-1.47a216,216,0,0,1-23.43-40l-1-2.49L137,214.1l.59,1.61a166.93,166.93,0,0,0,25.78,44.1L159.08,269H4.1l3.66,4H160.69l4.06-8.11Z"/>
            <polygon class="cls-5"
                     points="205.47 153.56 215.56 143.57 213.88 141.59 202.7 152.67 202.7 255.38 216.25 270.32 168.17 270.32 170.64 272.99 222.09 272.99 205.47 254.39 205.47 153.56"/>
            <path class="cls-6"
                  d="M347.92,141.67q-10.57,1.83-14.29,7.47t-3.71,20V270.24H309.47l1.32,2.75h21.87V168.11q0-11.69,2.8-16.63t10.63-6.76Z"/>
            <path class="cls-7"
                  d="M259.12,171.47l48,93.18h17.19V168.42q0-15.57,5.09-23.3,3.36-5,14.95-11H298.18q11.38,5.49,14.29,11.44t2.9,23.65v52.9l-38.65-75.89,12.61-8.54-1.93-1.93-14.24,9.66,42.21,82.19v12.21l-49.23-96,14.44-9.66H229.11l13.53,11.29v81.38q0,18.3-4.07,25.83t-16.48,12h47.4l5.29,5.59h-51l1.63,2.75h55.13l-8.85-9.46q-13.53-4-17.19-12.61t-3.66-36.52V155.81l5.49,10.68v55.64l-.1,9.56q0,25.34,14,30l-.82-.71q-7.22-4.89-9.25-15.06L259,231.28l.1-4.57Z"/>
            <path class="cls-8"
                  d="M412.47,159q-11.25,0-19.35-3.93t-20.69-15.94L370,136.87h-1.8q15.75,27.48,45.22,27.47,22.5,0,36.45-12.26t21.6-38.76l-5.4-2.21Q457.46,158.95,412.47,159Z"/>
            <polygon class="cls-9"
                     points="566.13 330.65 363.43 330.65 367.48 337.27 572.2 337.27 572.2 257.31 566.13 257.31 566.13 330.65"/>
            <path class="cls-10"
                  d="M554.88,248.47h-4.5q-4.95,21.11-19.12,27.35t-57.15,6.26H403.92q10.57-28.2,60.07-57.4l30.82-18.39Q568.6,162.63,568.6,98.61q0-55.93-43-80.21l-1.35,2q37.8,31.16,37.8,78.25,0,31.39-17,55.8t-54.33,46.48l-31,18.15q-46.8,27.72-64.12,63H381.2c.45-.82.82-1.47,1.13-2q22.49-43.17,60.29-65.74L477,193.78Q550.15,149.62,550.16,93q0-39-30.38-66T445.32,0Q404.6,0,377.71,23.42T350.83,82.66q0,27,16.76,44.52t42.63,17.54q18.45,0,31.39-11.65t15.86-30.79l-3.6-2.2Q441,114.8,426.2,114.79q-15.09,0-25-12.14t-9.9-30.29q0-22.81,15.64-37.65t39.71-14.84q28.11,0,44.21,17.41T507,85.11q0,38.52-24.07,67.46-12.15,14.22-47.7,38.51-39.36,27-60.4,56.66t-29.14,69.42H554.88Z"/>
            <path class="cls-11"
                  d="M422.71,50.77Q434.29,40,450.94,40q39.82,0,53.1,46.61,0-23.06-15.19-38.27T450.72,33.11q-19.35,0-32.29,12.39T405.5,76.28a38,38,0,0,0,7.31,23.18,29.7,29.7,0,0,0,18.78,12.15v-3.19q-20.47-9.81-20.47-31.15A34.8,34.8,0,0,1,422.71,50.77Z"/>
            <path class="cls-12"
                  d="M591.6,259.23h71.32q28.2,0,45.23-5a79.83,79.83,0,0,0,30.79-17.28q30.38-27.19,30.38-88.11,0-58.73-34.74-86.26-23.33-18.63-71.83-18.63H596.63l18,19.3v178.4ZM647.48,58h7.89q34.57,0,50.51,12.59,26.36,20.81,26.35,77.7,0,58.23-24.33,82.9-8.73,8.9-18.46,12t-28.53,3.11V73q7.05-.67,11.41-.67a88.14,88.14,0,0,1,38.1,8.39q-8.07-7.38-16-10.16t-21.73-2.76a104.91,104.91,0,0,0-15.95,1.34V246.31h-9.23Z"/>
            <path class="cls-13"
                  d="M748.85,65.73c1.11,1.34,1.78,2.13,2,2.35l6.71,7.39q22.66,25,22.66,76.52,0,77-50.52,103.88-23.49,12.58-68.8,12.59H599.49L602,273h58.91q61.25,0,88.27-24.17,35.25-31.38,35.24-97.67Q784.42,88.06,748.85,65.73Z"/>
            <path class="cls-14" d="M907.67,155.7q4.76-12.87,18.91-31.9l.81-1-1.63-2.44a137.85,137.85,0,0,0-20.06,33Z"/>
            <path class="cls-15"
                  d="M917.88,231l-3.72-1.39q6.86,17.52,23.55,33l-3.94,7.31h-127l1.85,3.13H935.28l6-10.44-1.86-1.86Q924.26,245.84,917.88,231Z"/>
            <polygon class="cls-16" points="893.28 212.66 893.28 161.39 890.38 159.88 890.38 211.16 893.28 212.66"/>
            <path class="cls-17"
                  d="M798,261.85H928.09q-10.33-10.2-14.8-17.86t-7.48-20.42c-.7,1.24-1.16,2.09-1.39,2.55l-6.15,10.56a28.12,28.12,0,0,1-15.66,13.22q-10,3.38-33.64,3.37V196.65h25.29l-3-3H846.07v59.63h-7.43V188.19h31.67l15,19.37v-50l-15,20.53H849V134l2.43-.12q9.51-.46,13.23-.46c8.19,0,13.69.46,16.47,1.39s7.31,3.87,13.57,8.82c.47.39,1.24,1,2.32,1.74q-5.44-9-12.41-12.18t-21.69-3.14q-8,0-16.82.82v47.21h-7.43V124.73q12.18-.58,20.88-.58,18.91,0,26.22,4.06t13.69,18c.39.85,1,2.17,1.74,3.94A116.12,116.12,0,0,1,920,116.84l1.86-2.2H798l17.63,13.92v49.53q-19,0-24.36,18.56,9.75-8.7,21.58-8.7a26.86,26.86,0,0,1,2.78.24v5.45q-12.18,1.5-19.26,6.61l1.63,2.44a42.78,42.78,0,0,1,17.63-6V248.4Z"/>
            <path class="cls-18"
                  d="M1084.83,197.24q1.9-.12,2.37-.12,3,0,9.47.6l9.59.82c.23,0,1.22.12,3,.36q-10.42-18.59-13-29.23l-3.67-2.25q2.6,11.24,10.18,25.21l1.42,2.6a106,106,0,0,0-14.21-1.06,36.2,36.2,0,0,0-9.23,1.06L1101.76,251l21.3,18.81h-62.84l2.25,3.2H1131l-26.39-23.32Z"/>
            <path class="cls-19"
                  d="M1113,263.28l-17.75-13.72-21.42-58.12q5.2-3.54,16.45-3.55c1,0,2.68.08,5,.24a82,82,0,0,1-9.47-24.14,34.34,34.34,0,0,1-4.5,4l-3.9,3.31c-.16.16-.71.59-1.66,1.3l-16.57-44.14,12-13.85-3.08-1.3-12.55,14.44L1073,174.4l-4.73,2.6-19.41-51.6,12.3-14H1006.6l12.55,13.49-16.1,44.26A90.06,90.06,0,0,0,991,159.61l-1.89,2.6,1.06.83q4,3.19,9.94,8.4l1.42,1.18-2.13,5.21a61.74,61.74,0,0,1-6.51-5.32l-5.32-5c-.24-.24-.91-.87-2-1.9a85.32,85.32,0,0,1-10.06,20.24q11.82,1.19,18.1,6.51l-.47,1.66q-9.71,30.88-19.59,45.68a70.33,70.33,0,0,1-26.8,23.55h59.17c-.94-1-1.65-1.77-2.13-2.24q-7.21-7.58-9.47-12a24,24,0,0,1-2.24-11q0-6.39,3.19-16.09l3.91-12.07c1.57-4.89,2.88-8.6,3.9-11.13l5.21,5.45q-9.82,23.9-9.82,36a29.25,29.25,0,0,0,2.42,12.36q2.43,5.28,10.24,14.74l2,2.48H952.87l2.37,3.2h63.91l-2.61-3.31q-9.7-12.07-12.25-17.23a28.32,28.32,0,0,1-2.54-12.6q0-12.66,9.11-32.9l1.19,1.42q9.59,12.54,15.74,22.37l2.13,3.43A105,105,0,0,1,1053.23,207l2.25,5.21-.94,1.18q-13.86,14.32-20.83,25.92l2.72.71q7-11.83,20-25l13.14,34.56-16.34,13.72Zm-80.24-53.85-1.66,2a10,10,0,0,1-1.18,1.3c-.71-.95-1.11-1.46-1.18-1.54l-5.45-7.58a165.4,165.4,0,0,0-15.5-18.22l18.81-49.71,3.32,9.11-15.15,40a123,123,0,0,1,19.29,23.07C1033.43,208.6,1033,209.12,1032.76,209.43Zm3.31-3.78-1.18-1.78a118.86,118.86,0,0,0-9.94-13.26l-4.85-5.44a12.76,12.76,0,0,0-1.19-1.42l13-34.32L1048.15,193A104.16,104.16,0,0,0,1036.07,205.65Z"/>
            <path class="cls-20"
                  d="M1257.91,116l-.6.71q-8.22,9.66-17,34.33l-.35,1.08,2.62,2.26.48-1.19q9-24.31,17.28-34.81Z"/>
            <path class="cls-21"
                  d="M1168.5,131.23V249.85l-16.69,14h54.48l-14.07-13V121.58h1.43c3.58-.32,7.15-.48,10.73-.48q13.11,0,19.49,5.25t9.84,18.83l.35,1.55,1.2.84.23-.6a106.45,106.45,0,0,1,7.75-19.07l8.11-14.31c.24-.48.72-1.39,1.43-2.74h-60V65.73h-23.11v45.12h-60.4L1110,112q10.74,20.38,15.86,37h1.43q.72-14.91,7.51-21.16t22.17-6.26a100.74,100.74,0,0,1,11.57.71v5.85"/>
            <path class="cls-22"
                  d="M1168.5,128.14h-1.31L1160,128q-13.59,0-19.49,5.48t-7.21,19.43h3.1q.94-12.15,6.14-17t17.46-4.82l8.47.11"/>
            <path class="cls-23"
                  d="M1228.46,137a13.67,13.67,0,0,0-7.45-7.33q-4.83-1.86-16.39-1.85l-6.44.12V252.12l16,18.24h-57.11l2.74,3.22h60.92l-19-22.42-.48-119.81A49.82,49.82,0,0,1,1207,131,38.46,38.46,0,0,1,1228.46,137Z"/>
            <polygon class="cls-24"
                     points="1392.22 250.47 1392.22 129.56 1404.32 117.82 1402.42 115.33 1389.26 128.37 1389.26 251.89 1405.15 269.79 1347.42 269.79 1350.38 272.99 1411.9 272.99 1392.22 250.47"/>
            <path class="cls-25"
                  d="M1342.79,263.27h54.53L1383,250.47V127l16.36-15.77h-54.77L1359,124.46V179a163.36,163.36,0,0,1-21.21,1.18q-8.53,0-17.67-.83l-3.91-.35V129.56l12.21-12.09-2.37-2.14-12.92,12.8v50.74a63,63,0,0,1-6.4-.71V127l16.12-15.77h-55.71l15.88,14.47V179q-15.77,3.07-22.76,20.15l1.78,1.18q7.71-10.06,21-10.07v4.38a25.08,25.08,0,0,0-18.37,9.61l2.49,1.18a18.91,18.91,0,0,1,15.88-7.82v51.8l-15.88,13.87h54.76l-15.17-12.8v-58.8q2,.12,2.73.24l12,1.07q3.68.35,11.61.35a177.84,177.84,0,0,0,26-1.66v4.27a57.65,57.65,0,0,1-19.79,3.08q-7,0-22.64-1.18l-3.44-.24v54.53l16.12,17.66h-57.85l3.09,3.2h61.28l-19.56-22.52V200.32l1.66.12q10.66,1.06,20.63,1.07a88.17,88.17,0,0,0,20.5-2.37V249.4Z"/>
        </g>
    </g>
</svg>